<svg xmlns="http://www.w3.org/2000/svg" width="860" height="560" viewBox="0 0 860 560">
<rect width="100%" height="100%" fill="white"/>
<rect x="82" y="46" width="742" height="438" fill="#fbfbfb" stroke="#333" stroke-width="1"/>
<text x="430.0" y="540" font-family="sans-serif" font-size="15" text-anchor="middle">t [s]</text>
<text x="24" y="265.0" font-family="sans-serif" font-size="15" text-anchor="middle" transform="rotate(-90 24 265.0)">normal force offset [m]</text>
<text x="82" y="28" font-family="sans-serif" font-size="12" fill="#444">t [s]: -3..39; normal force offset [m]: -0.002..0.026</text>
<line x1="133.17" y1="46" x2="133.17" y2="484" stroke="#888" stroke-width="0.8"/>
<line x1="133.17" y1="484" x2="133.17" y2="489" stroke="#333" stroke-width="1"/>
<text x="133.17" y="507" font-family="monospace" font-size="12" text-anchor="middle" fill="#333">0</text>
<line x1="308.71" y1="46" x2="308.71" y2="484" stroke="#b8b8b8" stroke-width="0.8"/>
<line x1="308.71" y1="484" x2="308.71" y2="489" stroke="#333" stroke-width="1"/>
<text x="308.71" y="507" font-family="monospace" font-size="12" text-anchor="middle" fill="#333">10</text>
<line x1="484.25" y1="46" x2="484.25" y2="484" stroke="#b8b8b8" stroke-width="0.8"/>
<line x1="484.25" y1="484" x2="484.25" y2="489" stroke="#333" stroke-width="1"/>
<text x="484.25" y="507" font-family="monospace" font-size="12" text-anchor="middle" fill="#333">20</text>
<line x1="659.78" y1="46" x2="659.78" y2="484" stroke="#b8b8b8" stroke-width="0.8"/>
<line x1="659.78" y1="484" x2="659.78" y2="489" stroke="#333" stroke-width="1"/>
<text x="659.78" y="507" font-family="monospace" font-size="12" text-anchor="middle" fill="#333">30</text>
<line x1="82" y1="453.79" x2="824" y2="453.79" stroke="#888" stroke-width="0.8"/>
<line x1="77" y1="453.79" x2="82" y2="453.79" stroke="#333" stroke-width="1"/>
<text x="73" y="457.79" font-family="monospace" font-size="12" text-anchor="end" fill="#333">0.000</text>
<line x1="82" y1="296.47" x2="824" y2="296.47" stroke="#b8b8b8" stroke-width="0.8"/>
<line x1="77" y1="296.47" x2="82" y2="296.47" stroke="#333" stroke-width="1"/>
<text x="73" y="300.47" font-family="monospace" font-size="12" text-anchor="end" fill="#333">0.010</text>
<line x1="82" y1="139.14" x2="824" y2="139.14" stroke="#b8b8b8" stroke-width="0.8"/>
<line x1="77" y1="139.14" x2="82" y2="139.14" stroke="#333" stroke-width="1"/>
<text x="73" y="143.14" font-family="monospace" font-size="12" text-anchor="end" fill="#333">0.020</text>
<rect x="82" y="46" width="742" height="438" fill="none" stroke="#333" stroke-width="1"/>
<polyline fill="none" stroke="#1f77b4" stroke-width="2" points="133.17,453.79 133.52,453.79 133.87,453.79 134.23,453.79 134.58,453.79 134.93,430.19 135.28,406.59 135.63,383.00 135.98,359.40 136.33,335.80 136.68,312.20 137.03,288.60 137.39,265.00 137.74,241.40 138.09,217.80 138.44,194.20 138.79,170.60 139.14,147.00 139.49,123.41 139.84,99.81 140.19,76.21 140.54,88.79 140.90,112.39 141.25,135.99 141.60,159.59 141.95,183.19 142.30,206.79 142.65,230.39 143.00,253.99 143.35,277.59 143.70,301.19 144.06,324.79 144.41,348.39 144.76,371.98 145.11,395.58 145.46,401.57 145.81,453.79 146.16,453.79 146.51,453.79 146.86,453.79 147.22,453.79 147.57,453.79 147.92,453.79 148.27,453.79 148.62,453.79 148.97,453.79 149.32,453.79 149.67,453.79 150.02,453.79 150.37,453.79 150.73,453.79 151.08,453.79 151.43,453.79 151.78,453.79 152.13,453.79 152.48,453.79 152.83,453.79 153.18,453.79 153.53,453.79 153.89,453.79 154.24,453.79 154.59,453.79 154.94,453.79 155.29,453.79 155.64,453.79 155.99,453.79 156.34,453.79 156.69,453.79 157.05,453.79 157.40,453.79 157.75,453.79 158.10,453.79 158.45,453.79 158.80,453.79 159.15,453.79 159.50,453.79 159.85,453.79 160.21,453.79 160.56,453.79 160.91,453.79 161.26,453.79 161.61,453.79 161.96,453.79 162.31,453.79 162.66,453.79 163.01,453.79 163.36,453.79 163.72,453.79 164.07,453.79 164.42,453.79 164.77,453.79 165.12,453.79 165.47,453.79 165.82,453.79 166.17,453.79 166.52,453.79 166.88,453.79 167.23,453.79 167.58,453.79 167.93,453.79 168.28,453.79 168.63,453.79 168.98,453.79 169.33,453.79 169.68,453.79 170.04,453.79 170.39,453.79 170.74,453.79 171.09,453.79 171.44,453.79 171.79,453.79 172.14,453.79 172.49,453.79 172.84,453.79 173.19,453.79 173.55,453.79 173.90,453.79 174.25,453.79 174.60,453.79 174.95,453.79 175.30,453.79 175.65,453.79 176.00,453.79 176.35,453.79 176.71,453.79 177.06,453.79 177.41,453.79 177.76,453.79 178.11,453.79 178.46,453.79 178.81,453.79 179.16,453.79 179.51,453.79 179.87,453.79 180.22,453.79 180.57,453.79 180.92,453.79 181.27,453.79 181.62,453.79 181.97,453.79 182.32,453.79 182.67,453.79 183.02,453.79 183.38,453.79 183.73,453.79 184.08,453.79 184.43,453.79 184.78,453.79 185.13,453.79 185.48,453.79 185.83,453.79 186.18,453.79 186.54,453.79 186.89,453.79 187.24,453.79 187.59,453.79 187.94,453.79 188.29,453.79 188.64,453.79 188.99,453.79 189.34,453.79 189.70,453.79 190.05,453.79 190.40,453.79 190.75,453.79 191.10,453.79 191.45,453.79 191.80,453.79 192.15,453.79 192.50,453.79 192.85,453.79 193.21,453.79 193.56,453.79 193.91,453.79 194.26,453.79 194.61,453.79 194.96,453.79 195.31,453.79 195.66,453.79 196.01,453.79 196.37,453.79 196.72,453.79 197.07,453.79 197.42,453.79 197.77,453.79 198.12,453.79 198.47,453.79 198.82,453.79 199.17,453.79 199.53,453.79 199.88,453.79 200.23,453.79 200.58,453.79 200.93,453.79 201.28,453.79 201.63,453.79 201.98,453.79 202.33,453.79 202.68,453.79 203.04,451.28 203.39,443.42 203.74,435.55 204.09,427.68 204.44,419.82 204.79,418.69 205.14,410.82 205.49,411.80 205.84,403.94 206.20,396.07 206.55,395.59 206.90,387.72 207.25,379.86 207.60,385.36 207.95,377.49 208.30,369.63 208.65,361.76 209.00,362.52 209.36,354.65 209.71,359.86 210.06,351.99 210.41,344.12 210.76,336.26 211.11,339.96 211.46,332.10 211.81,332.98 212.16,325.11 212.51,327.52 212.87,319.65 213.22,318.72 213.57,310.86 213.92,318.72 214.27,310.86 214.62,306.66 214.97,312.57 215.32,304.70 215.67,298.93 216.03,306.80 216.38,298.93 216.73,299.70 217.08,295.51 217.43,303.38 217.78,295.51 218.13,291.53 218.48,299.40 218.83,291.53 219.19,297.16 219.54,289.29 219.89,297.16 220.24,290.11 220.59,297.28 220.94,289.41 221.29,295.47 221.64,289.15 221.99,297.01 222.34,289.15 222.70,295.88 223.05,288.02 223.40,295.88 223.75,288.91 224.10,296.78 224.45,288.91 224.80,292.87 225.15,289.48 225.50,297.35 225.86,289.48 226.21,287.90 226.56,295.77 226.91,287.90 227.26,294.63 227.61,286.76 227.96,294.63 228.31,287.35 228.66,295.22 229.02,287.35 229.37,292.97 229.72,288.72 230.07,292.91 230.42,287.89 230.77,292.31 231.12,289.00 231.47,291.32 231.82,288.91 232.18,291.91 232.53,286.57 232.88,293.73 233.23,285.86 233.58,293.39 233.93,286.71 234.28,291.15 234.63,289.46 234.98,287.89 235.33,291.68 235.69,286.52 236.04,292.01 236.39,287.27 236.74,290.37 237.09,288.69 237.44,288.12 237.79,290.79 238.14,286.92 238.49,290.13 238.85,288.73 239.20,287.86 239.55,290.07 239.90,287.39 240.25,290.40 240.60,286.72 240.95,289.95 241.30,287.73 241.65,288.76 242.01,288.96 242.36,287.77 242.71,288.80 243.06,288.63 243.41,288.19 243.76,288.27 244.11,290.40 244.46,283.98 244.81,291.84 245.16,286.67 245.52,287.79 245.87,290.64 246.22,284.90 246.57,292.30 246.92,284.44 247.27,292.30 247.62,284.44 247.97,292.19 248.32,284.33 248.68,289.82 249.03,289.18 249.38,285.05 249.73,292.28 250.08,284.41 250.43,290.71 250.78,287.36 251.13,287.46 251.48,290.18 251.84,285.66 252.19,290.43 252.54,286.69 252.89,288.97 253.24,288.33 253.59,287.55 253.94,289.26 254.29,287.79 254.64,288.94 254.99,286.58 255.35,290.58 255.70,286.34 256.05,289.49 256.40,288.49 256.75,287.61 257.10,289.62 257.45,287.69 257.80,288.12 258.15,290.06 258.51,286.58 258.86,289.76 259.21,288.21 259.56,288.35 259.91,289.16 260.26,289.34 260.61,286.38 260.96,291.49 261.31,286.46 261.67,290.46 262.02,288.63 262.37,287.44 262.72,291.17 263.07,286.41 263.42,291.14 263.77,287.76 264.12,289.32 264.47,289.41 264.82,288.64 265.18,289.81 265.53,288.43 265.88,289.76 266.23,289.01 266.58,290.01 266.93,288.27 267.28,290.43 267.63,288.47 267.98,290.73 268.34,287.91 268.69,292.57 269.04,285.24 269.39,293.10 269.74,288.31 270.09,289.05 270.44,292.12 270.79,286.62 271.14,293.20 271.50,286.96 271.85,291.96 272.20,289.26 272.55,290.04 272.90,290.60 273.25,289.37 273.60,291.33 273.95,289.08 274.30,290.93 274.65,290.30 275.01,290.06 275.36,290.88 275.71,289.94 276.06,290.86 276.41,290.51 276.76,291.60 277.11,288.28 277.46,293.21 277.81,288.70 278.17,291.88 278.52,290.80 278.87,289.94 279.22,292.53 279.57,289.66 279.92,291.22 280.27,291.57 280.62,290.41 280.97,291.24 281.33,291.64 281.68,290.16 282.03,292.46 282.38,290.05 282.73,292.22 283.08,290.80 283.43,293.25 283.78,287.61 284.13,295.48 284.48,287.99 284.84,294.28 285.19,289.61 285.54,292.47 285.89,291.52 286.24,291.20 286.59,292.38 286.94,291.00 287.29,293.68 287.64,288.38 288.00,295.39 288.35,288.78 288.70,294.01 289.05,290.89 289.40,291.85 289.75,292.76 290.10,290.60 290.45,293.86 290.80,290.02 291.16,293.91 291.51,290.78 291.86,292.43 292.21,292.41 292.56,291.50 292.91,293.07 293.26,291.46 293.61,292.19 293.96,292.85 294.31,290.90 294.67,293.76 295.02,291.03 295.37,292.99 295.72,291.92 296.07,292.35 296.42,292.55 296.77,291.73 297.12,292.95 297.47,291.76 297.83,292.52 298.18,292.43 298.53,291.90 298.88,293.10 299.23,291.00 299.58,294.22 299.93,290.70 300.28,293.05 300.63,292.30 300.99,292.47 301.34,291.60 301.69,293.84 302.04,289.61 302.39,295.63 302.74,289.18 303.09,294.58 303.44,291.44 303.79,291.20 304.15,295.41 304.50,287.54 304.85,295.41 305.20,291.40 305.55,292.07 305.90,292.21 306.25,292.64 306.60,291.24 306.95,292.87 307.30,291.62 307.66,292.94 308.01,290.37 308.36,294.59 308.71,289.80 309.06,293.27 309.41,292.10 309.76,291.02 310.11,293.56 310.46,291.56 310.82,290.68 311.17,294.46 311.52,288.05 311.87,295.92 312.22,288.66 312.57,294.72 312.92,289.61 313.27,293.80 313.62,290.29 313.98,293.18 314.33,290.57 314.68,293.05 315.03,290.70 315.38,293.22 315.73,289.57 316.08,294.82 316.43,288.13 316.78,295.99 317.13,288.12 317.49,294.41 317.84,289.40 318.19,294.39 318.54,288.12 318.89,295.98 319.24,288.12 319.59,293.85 319.94,289.22 320.29,295.04 320.65,287.18 321.00,295.04 321.35,288.08 321.70,295.57 322.05,287.70 322.40,294.46 322.75,287.78 323.10,295.64 323.45,287.78 323.81,293.88 324.16,287.26 324.51,295.13 324.86,287.26 325.21,295.13 325.56,287.26 325.91,295.13 326.26,287.26 326.61,295.13 326.96,287.26 327.32,293.88 327.67,287.67 328.02,295.54 328.37,287.67 328.72,291.70 329.07,290.80 329.42,287.51 329.77,295.38 330.12,287.51 330.48,291.99 330.83,289.70 331.18,289.99 331.53,290.63 331.88,289.54 332.23,290.42 332.58,290.39 332.93,288.35 333.28,291.84 333.64,287.59 333.99,292.68 334.34,286.40 334.69,293.91 335.04,286.04 335.39,291.80 335.74,288.47 336.09,289.57 336.44,290.03 336.79,287.93 337.15,290.91 337.50,288.11 337.85,289.25 338.20,289.83 338.55,287.42 338.90,290.80 339.25,287.96 339.60,287.86 339.95,290.42 340.31,285.90 340.66,290.89 341.01,286.78 341.36,288.17 341.71,289.49 342.06,285.72 342.41,290.36 342.76,285.60 343.11,288.87 343.47,288.45 343.82,284.38 344.17,291.29 344.52,284.36 344.87,287.58 345.22,288.16 345.57,283.95 345.92,289.90 346.27,283.86 346.62,288.18 346.98,284.73 347.33,287.23 347.68,285.98 348.03,284.31 348.38,287.29 348.73,283.71 349.08,286.89 349.43,283.59 349.78,286.47 350.14,283.59 350.49,284.70 350.84,285.71 351.19,281.77 351.54,287.62 351.89,280.33 352.24,287.19 352.59,280.11 352.94,285.45 353.30,282.34 353.65,282.46 354.00,283.79 354.35,281.15 354.70,283.64 355.05,281.86 355.40,280.79 355.75,283.41 356.10,279.18 356.45,283.00 356.81,280.17 357.16,280.31 357.51,283.38 357.86,275.52 358.21,283.38 358.56,279.50 358.91,278.08 359.26,281.74 359.61,276.34 359.97,281.21 360.32,278.18 360.67,276.39 361.02,282.61 361.37,274.74 361.72,277.95 362.07,278.81 362.42,274.54 362.77,279.37 363.13,275.10 363.48,276.65 363.83,277.40 364.18,273.97 364.53,276.89 364.88,274.56 365.23,275.28 365.58,275.13 365.93,274.14 366.28,274.08 366.64,274.71 366.99,272.32 367.34,275.02 367.69,271.78 368.04,273.62 368.39,273.07 368.74,271.43 369.09,272.68 369.44,272.18 369.80,269.66 370.15,273.21 370.50,269.56 370.85,271.04 371.20,270.58 371.55,269.71 371.90,269.97 372.25,269.96 372.60,268.52 372.96,269.93 373.31,267.16 373.66,269.52 374.01,267.58 374.36,267.49 374.71,268.10 375.06,266.49 375.41,267.73 375.76,265.84 376.11,266.94 376.47,265.81 376.82,265.35 377.17,266.58 377.52,263.57 377.87,266.14 378.22,263.82 378.57,265.32 378.92,262.68 379.27,264.69 379.63,263.27 379.98,262.95 380.33,263.27 380.68,261.91 381.03,263.02 381.38,261.86 381.73,261.26 382.08,262.15 382.43,261.83 382.79,258.55 383.14,263.14 383.49,258.80 383.84,261.08 384.19,259.65 384.54,258.25 384.89,260.98 385.24,257.88 385.59,258.84 385.95,259.39 386.30,257.28 386.65,257.87 387.00,258.63 387.35,256.03 387.70,258.41 388.05,256.22 388.40,256.58 388.75,256.63 389.10,256.11 389.46,256.37 389.81,254.37 390.16,256.48 390.51,254.65 390.86,254.61 391.21,255.61 391.56,253.94 391.91,254.70 392.26,253.04 392.62,254.10 392.97,254.04 393.32,251.94 393.67,254.56 394.02,252.03 394.37,252.79 394.72,252.71 395.07,251.57 395.42,252.90 395.78,250.96 396.13,252.92 396.48,249.95 396.83,252.48 397.18,250.08 397.53,251.34 397.88,250.81 398.23,249.99 398.58,250.94 398.93,250.28 399.29,248.89 399.64,251.19 399.99,248.31 400.34,250.52 400.69,248.61 401.04,249.30 401.39,249.66 401.74,247.16 402.09,249.99 402.45,248.44 402.80,247.19 403.15,249.31 403.50,247.41 403.85,247.66 404.20,248.55 404.55,246.38 404.90,248.53 405.25,246.38 405.61,247.68 405.96,247.07 406.31,246.67 406.66,247.13 407.01,246.17 407.36,246.94 407.71,246.28 408.06,246.72 408.41,245.95 408.76,245.88 409.12,246.77 409.47,245.32 409.82,246.42 410.17,245.07 410.52,246.46 410.87,245.01 411.22,245.63 411.57,245.45 411.92,245.81 412.28,244.82 412.63,245.24 412.98,245.75 413.33,243.77 413.68,246.42 414.03,243.74 414.38,245.73 414.73,244.48 415.08,245.90 415.44,243.23 415.79,245.74 416.14,244.03 416.49,244.86 416.84,244.66 417.19,244.77 417.54,244.13 417.89,244.86 418.24,243.38 418.59,248.06 418.95,240.20 419.30,247.91 419.65,243.10 420.00,245.63 420.35,242.84 420.70,248.00 421.05,240.14 421.40,248.00 421.75,241.55 422.11,248.14 422.46,240.28 422.81,248.14 423.16,241.09 423.51,248.23 423.86,240.37 424.21,248.23 424.56,240.37 424.91,248.23 425.27,240.37 425.62,247.89 425.97,240.18 426.32,248.05 426.67,240.18 427.02,248.05 427.37,240.18 427.72,247.85 428.07,240.14 428.42,248.01 428.78,240.14 429.13,248.01 429.48,240.14 429.83,247.47 430.18,239.73 430.53,247.60 430.88,240.60 431.23,247.28 431.58,241.05 431.94,247.06 432.29,241.88 432.64,245.71 432.99,247.48 433.34,243.73 433.69,240.97 434.04,248.84 434.39,240.97 434.74,245.99 435.10,249.32 435.45,241.45 435.80,243.48 436.15,249.16 436.50,246.41 436.85,238.54 437.20,246.41 437.55,252.40 437.90,244.53 438.25,236.66 438.61,244.53 438.96,252.40 439.31,244.53 439.66,239.57 440.01,247.44 440.36,251.99 440.71,244.12 441.06,240.20 441.41,248.06 441.77,252.12 442.12,244.25 442.47,241.38 442.82,249.24 443.17,249.14 443.52,241.86 443.87,249.73 444.22,248.25 444.57,243.58 444.93,251.09 445.28,245.41 445.63,247.42 445.98,249.43 446.33,245.97 446.68,249.16 447.03,248.05 447.38,248.09 447.73,248.71 448.08,248.66 448.44,248.71 448.79,249.18 449.14,248.98 449.49,249.61 449.84,249.33 450.19,249.74 450.54,250.14 450.89,250.79 451.24,248.59 451.60,252.26 451.95,250.90 452.30,248.92 452.65,253.34 453.00,250.11 453.35,251.81 453.70,252.27 454.05,251.17 454.40,253.02 454.76,252.13 455.11,252.78 455.46,253.17 455.81,252.83 456.16,255.06 456.51,251.08 456.86,256.23 457.21,253.10 457.56,254.12 457.92,256.12 458.27,253.48 458.62,256.16 458.97,255.45 459.32,255.14 459.67,257.01 460.02,255.54 460.37,257.22 460.72,256.90 461.07,256.86 461.43,257.91 461.78,257.68 462.13,257.46 462.48,259.41 462.83,257.72 463.18,259.19 463.53,259.87 463.88,259.11 464.23,259.54 464.59,261.02 464.94,259.68 465.29,261.13 465.64,261.72 465.99,260.31 466.34,262.44 466.69,261.75 467.04,262.50 467.39,262.49 467.75,263.08 468.10,263.15 468.45,263.82 468.80,263.66 469.15,264.58 469.50,264.20 469.85,265.25 470.20,265.08 470.55,265.85 470.90,265.38 471.26,273.24 471.61,281.11 471.96,288.98 472.31,296.84 472.66,304.71 473.01,310.77 473.36,302.90 473.71,295.03 474.06,287.17 474.42,295.03 474.77,302.90 475.12,295.03 475.47,294.05 475.82,301.91 476.17,294.05 476.52,298.46 476.87,298.98 477.22,295.82 477.58,300.11 477.93,297.43 478.28,298.31 478.63,299.76 478.98,297.66 479.33,300.04 479.68,298.97 480.03,299.17 480.38,300.31 480.73,299.32 481.09,300.01 481.44,300.87 481.79,299.63 482.14,301.16 482.49,300.51 482.84,300.92 483.19,301.37 483.54,301.01 483.89,301.73 484.25,301.59 484.60,302.11 484.95,301.44 485.30,302.85 485.65,301.96 486.00,302.75 486.35,302.59 486.70,303.07 487.05,303.02 487.41,303.19 487.76,303.46 488.11,303.47 488.46,303.86 488.81,303.79 489.16,304.07 489.51,304.36 489.86,303.79 490.21,305.48 490.56,303.78 490.92,305.31 491.27,304.93 491.62,304.76 491.97,305.92 492.32,304.70 492.67,306.04 493.02,305.53 493.37,305.48 493.72,306.48 494.08,305.62 494.43,306.48 494.78,306.17 495.13,306.57 495.48,306.44 495.83,307.04 496.18,306.19 496.53,307.52 496.88,306.51 497.24,307.34 497.59,307.34 497.94,307.28 498.29,307.40 498.64,307.69 498.99,307.57 499.34,307.69 499.69,308.05 500.04,307.57 500.39,308.36 500.75,307.77 501.10,308.43 501.45,308.25 501.80,308.07 502.15,308.78 502.50,308.19 502.85,308.52 503.20,308.91 503.55,308.16 503.91,309.74 504.26,307.27 504.61,310.34 504.96,308.25 505.31,308.52 505.66,310.21 506.01,307.56 506.36,310.27 506.71,308.71 507.07,308.67 507.42,310.42 507.77,308.06 508.12,309.89 508.47,309.50 508.82,308.03 509.17,311.21 509.52,308.00 509.87,310.11 510.22,308.99 510.58,309.28 510.93,309.80 511.28,309.29 511.63,309.07 511.98,310.16 512.33,308.80 512.68,309.03 513.03,310.97 513.38,308.25 513.74,308.91 514.09,310.88 514.44,309.31 514.79,306.92 515.14,312.60 515.49,304.73 515.84,310.80 516.19,307.96 516.54,309.42 516.90,311.76 517.25,303.89 517.60,309.57 517.95,309.08 518.30,310.71 518.65,302.84 519.00,310.71 519.35,308.03 519.70,310.24 520.05,302.38 520.41,310.24 520.76,309.17 521.11,301.30 521.46,309.17 521.81,313.22 522.16,305.36 522.51,303.95 522.86,311.82 523.21,303.95 523.57,311.82 523.92,303.95 524.27,309.64 524.62,305.23 524.97,311.16 525.32,303.29 525.67,310.05 526.02,303.49 526.37,311.35 526.73,303.49 527.08,311.35 527.43,303.49 527.78,309.37 528.13,303.90 528.48,311.73 528.83,303.86 529.18,306.88 529.53,307.98 529.89,301.82 530.24,309.68 530.59,306.47 530.94,303.44 531.29,311.31 531.64,303.44 531.99,306.62 532.34,308.20 532.69,300.69 533.04,308.56 533.40,308.24 533.75,300.37 534.10,308.24 534.45,308.16 534.80,300.29 535.15,308.16 535.50,307.16 535.85,301.23 536.20,309.10 536.56,301.83 536.91,308.56 537.26,301.55 537.61,307.34 537.96,303.35 538.31,305.11 538.66,304.68 539.01,303.52 539.36,305.55 539.72,303.47 540.07,304.57 540.42,304.39 540.77,303.04 541.12,305.47 541.47,301.99 541.82,305.93 542.17,301.14 542.52,305.34 542.87,301.87 543.23,304.75 543.58,301.13 543.93,305.27 544.28,300.64 544.63,304.57 544.98,301.88 545.33,301.79 545.68,305.43 546.03,297.63 546.39,305.50 546.74,299.97 547.09,302.47 547.44,301.27 547.79,303.27 548.14,297.37 548.49,305.23 548.84,297.63 549.19,302.65 549.55,300.03 549.90,300.29 550.25,301.53 550.60,298.16 550.95,302.32 551.30,298.02 551.65,300.78 552.00,298.28 552.35,301.18 552.70,296.63 553.06,301.04 553.41,296.65 553.76,301.28 554.11,294.43 554.46,301.93 554.81,294.82 555.16,299.29 555.51,298.30 555.86,293.56 556.22,301.43 556.57,293.65 556.92,297.61 557.27,297.28 557.62,293.45 557.97,299.20 558.32,293.32 558.67,296.56 559.02,294.99 559.38,293.98 559.73,296.51 560.08,292.41 560.43,296.10 560.78,292.61 561.13,295.33 561.48,291.21 561.83,295.04 562.18,291.94 562.53,292.90 562.89,292.95 563.24,291.25 563.59,292.83 563.94,291.79 564.29,290.02 564.64,293.08 564.99,289.18 565.34,291.62 565.69,289.92 566.05,290.44 566.40,288.97 566.75,290.13 567.10,289.98 567.45,286.50 567.80,291.55 568.15,286.52 568.50,288.65 568.85,288.30 569.21,287.19 569.56,286.99 569.91,287.44 570.26,286.79 570.61,285.81 570.96,287.30 571.31,284.43 571.66,286.17 572.01,285.64 572.36,283.72 572.72,286.14 573.07,283.80 573.42,284.00 573.77,283.65 574.12,283.80 574.47,283.21 574.82,282.48 575.17,283.37 575.52,282.32 575.88,281.01 576.23,283.82 576.58,278.92 576.93,283.69 577.28,279.80 577.63,278.95 577.98,283.59 578.33,276.43 578.68,281.64 579.04,279.71 579.39,277.36 579.74,281.21 580.09,276.57 580.44,278.85 580.79,278.14 581.14,276.52 581.49,278.94 581.84,276.64 582.19,275.61 582.55,278.54 582.90,273.62 583.25,278.18 583.60,274.04 583.95,275.98 584.30,275.52 584.65,273.37 585.00,276.21 585.35,273.96 585.71,272.11 586.06,275.83 586.41,271.45 586.76,274.03 587.11,273.31 587.46,270.77 587.81,275.00 588.16,269.06 588.51,273.34 588.87,271.64 589.22,269.87 589.57,273.45 589.92,267.29 590.27,273.28 590.62,269.00 590.97,268.65 591.32,272.33 591.67,267.92 592.02,268.40 592.38,272.07 592.73,265.10 593.08,269.65 593.43,268.83 593.78,266.15 594.13,270.06 594.48,265.59 594.83,267.65 595.18,268.94 595.54,263.06 595.89,270.83 596.24,263.51 596.59,266.34 596.94,268.10 597.29,262.13 597.64,268.79 597.99,263.71 598.34,265.05 598.70,266.11 599.05,263.47 599.40,265.59 599.75,263.58 600.10,265.06 600.45,263.81 600.80,262.43 601.15,265.65 601.50,261.49 601.85,264.24 602.21,262.66 602.56,263.17 602.91,262.67 603.26,262.10 603.61,263.11 603.96,261.94 604.31,261.09 604.66,263.69 605.01,259.85 605.37,262.64 605.72,261.03 606.07,260.83 606.42,262.15 606.77,260.12 607.12,261.25 607.47,260.62 607.82,260.76 608.17,259.90 608.53,261.76 608.88,257.84 609.23,263.40 609.58,256.36 609.93,262.49 610.28,259.08 610.63,258.48 610.98,262.02 611.33,256.39 611.69,262.51 612.04,258.23 612.39,257.23 612.74,262.71 613.09,256.53 613.44,258.93 613.79,260.33 614.14,257.51 614.49,259.24 614.84,258.46 615.20,258.18 615.55,258.55 615.90,258.10 616.25,258.96 616.60,257.69 616.95,259.17 617.30,256.69 617.65,261.03 618.00,253.46 618.36,261.33 618.71,256.98 619.06,258.66 619.41,257.21 619.76,260.55 620.11,252.69 620.46,260.55 620.81,259.73 621.16,252.53 621.52,260.39 621.87,259.30 622.22,254.27 622.57,262.13 622.92,254.27 623.27,261.02 623.62,254.25 623.97,262.07 624.32,254.20 624.67,260.06 625.03,255.92 625.38,261.34 625.73,253.48 626.08,260.38 626.43,254.56 626.78,262.23 627.13,254.36 627.48,258.73 627.83,255.64 628.19,262.46 628.54,254.60 628.89,256.00 629.24,263.87 629.59,256.00 629.94,251.58 630.29,259.45 630.64,260.11 630.99,252.24 631.35,260.11 631.70,255.29 632.05,259.68 632.40,253.15 632.75,261.01 633.10,254.02 633.45,259.93 633.80,254.46 634.15,259.40 634.50,255.00 634.86,258.86 635.21,255.24 635.56,259.25 635.91,254.09 636.26,259.88 636.61,254.53 636.96,260.12 637.31,252.45 637.66,260.32 638.02,254.86 638.37,257.92 638.72,257.26 639.07,254.85 639.42,260.24 639.77,252.84 640.12,260.51 640.47,254.79 640.82,257.14 641.18,258.29 641.53,254.29 641.88,259.76 642.23,255.03 642.58,257.54 642.93,257.93 643.28,255.02 643.63,260.21 643.98,253.32 644.33,260.03 644.69,255.61 645.04,257.50 645.39,257.37 645.74,256.56 646.09,258.65 646.44,255.08 646.79,259.19 647.14,256.36 647.49,257.34 647.85,257.94 648.20,256.72 648.55,258.00 648.90,257.49 649.25,257.37 649.60,257.85 649.95,258.85 650.30,254.85 650.65,260.50 651.01,256.10 651.36,257.98 651.71,259.35 652.06,255.63 652.41,259.99 652.76,258.33 653.11,255.10 653.46,261.83 653.81,255.17 654.16,259.74 654.52,259.57 654.87,254.78 655.22,262.13 655.57,255.82 655.92,259.55 656.27,259.26 656.62,259.15 656.97,256.68 657.32,260.51 657.68,257.87 658.03,258.90 658.38,261.45 658.73,254.39 659.08,262.26 659.43,258.80 659.78,257.57 660.13,262.46 660.48,256.19 660.84,262.04 661.19,258.84 661.54,258.60 661.89,261.79 662.24,258.34 662.59,259.63 662.94,261.67 663.29,258.15 663.64,260.89 663.99,260.34 664.35,259.74 664.70,261.54 665.05,258.69 665.40,262.06 665.75,260.00 666.10,260.43 666.45,262.23 666.80,258.73 667.15,262.73 667.51,259.98 667.86,261.07 668.21,262.03 668.56,260.14 668.91,263.06 669.26,260.54 669.61,260.90 669.96,263.60 670.31,258.74 670.67,264.60 671.02,260.29 671.37,262.00 671.72,263.16 672.07,262.08 672.42,260.59 672.77,264.45 673.12,261.37 673.47,262.16 673.82,263.56 674.18,262.07 674.53,262.58 674.88,263.19 675.23,263.35 675.58,261.74 675.93,264.62 676.28,262.01 676.63,263.81 676.98,263.64 677.34,262.77 677.69,264.09 678.04,264.03 678.39,262.41 678.74,265.05 679.09,263.72 679.44,262.98 679.79,265.93 680.14,261.80 680.50,266.13 680.85,263.20 681.20,265.01 681.55,264.17 681.90,264.24 682.25,265.12 682.60,264.31 682.95,264.89 683.30,265.34 683.66,263.94 684.01,266.21 684.36,265.53 684.71,262.49 685.06,268.55 685.41,263.76 685.76,264.26 686.11,268.31 686.46,261.99 686.81,268.68 687.17,264.15 687.52,265.62 687.87,267.22 688.22,264.08 688.57,267.52 688.92,264.95 689.27,266.94 689.62,265.30 689.97,267.44 690.33,264.82 690.68,268.03 691.03,264.86 691.38,267.38 691.73,267.62 692.08,264.35 692.43,268.23 692.78,266.34 693.13,267.14 693.49,265.94 693.84,269.97 694.19,262.10 694.54,269.97 694.89,266.99 695.24,265.09 695.59,270.29 695.94,264.86 696.29,268.01 696.64,267.89 697.00,266.52 697.35,267.78 697.70,267.38 698.05,269.12 698.40,265.35 698.75,268.28 699.10,268.90 699.45,265.94 699.80,267.98 700.16,268.81 700.51,266.71 700.86,267.80 701.21,268.96 701.56,265.87 701.91,270.13 702.26,266.38 702.61,269.93 702.96,265.04 703.32,271.16 703.67,266.76 704.02,266.48 704.37,271.66 704.72,263.80 705.07,270.84 705.42,267.87 705.77,266.83 706.12,270.57 706.47,265.56 706.83,270.62 707.18,266.81 707.53,268.63 707.88,269.13 708.23,266.35 708.58,270.56 708.93,266.71 709.28,269.05 709.63,269.13 709.99,266.69 710.34,269.85 710.69,268.88 711.04,264.91 711.39,272.78 711.74,264.91 712.09,270.16 712.44,269.38 712.79,264.44 713.15,272.31 713.50,266.14 713.85,269.95 714.20,267.54 714.55,268.83 714.90,268.92 715.25,266.81 715.60,271.21 715.95,265.29 716.30,272.25 716.66,264.84 717.01,271.42 717.36,266.77 717.71,269.72 718.06,267.75 718.41,269.78 718.76,266.65 719.11,272.53 719.46,264.66 719.82,269.87 720.17,269.93 720.52,265.12 720.87,272.98 721.22,265.12 721.57,270.53 721.92,268.03 722.27,269.99 722.62,265.54 722.98,273.38 723.33,265.52 723.68,268.83 724.03,270.57 724.38,262.71 724.73,270.57 725.08,272.51 725.43,248.91 725.78,244.14 726.13,254.65 726.49,261.48 726.84,265.92 727.19,268.81 727.54,270.68 727.89,271.90 728.24,272.70 728.59,268.29 728.94,267.60 729.29,269.86 729.65,271.33 730.00,272.29 730.35,272.91 730.70,273.32 731.05,273.58 731.40,273.75 731.75,273.86 732.10,273.93 732.45,273.98 732.81,274.01 733.16,274.03 733.51,274.04 733.86,274.05 734.21,274.06 734.56,274.06 734.91,274.06 735.26,274.06 735.61,274.06 735.96,274.07 736.32,274.07 736.67,274.07 737.02,274.07 737.37,274.07 737.72,274.07 738.07,274.07 738.42,274.07 738.77,274.07 739.12,274.07 739.48,274.07 739.83,274.07 740.18,274.07 740.53,274.07 740.88,274.07 741.23,274.07 741.58,274.07 741.93,274.07 742.28,274.07 742.64,274.07 742.99,274.07 743.34,274.07 743.69,274.07 744.04,274.07 744.39,274.07 744.74,274.07 745.09,274.07 745.44,274.07 745.79,274.07 746.15,274.07 746.50,274.07 746.85,274.07 747.20,274.07 747.55,274.07 747.90,274.07 748.25,274.07 748.60,274.07 748.95,274.07 749.31,274.07 749.66,274.07 750.01,274.07 750.36,274.07 750.71,274.07 751.06,274.07 751.41,274.07 751.76,274.07 752.11,274.07 752.47,274.07 752.82,274.07 753.17,274.07 753.52,274.07 753.87,274.07 754.22,274.07 754.57,274.07 754.92,274.07 755.27,274.07 755.63,274.07 755.98,274.07 756.33,274.07 756.68,274.07 757.03,274.07 757.38,274.07 757.73,274.07 758.08,274.07 758.43,274.07 758.78,274.07 759.14,274.07 759.49,274.07 759.84,274.07 760.19,274.07 760.54,274.07 760.89,274.07 761.24,274.07 761.59,274.07 761.94,274.07 762.30,274.07 762.65,274.07 763.00,274.07 763.35,274.07 763.70,274.07 764.05,274.07 764.40,274.07 764.75,274.07 765.10,274.07 765.46,274.07 765.81,274.07 766.16,274.07 766.51,274.07 766.86,274.07 767.21,274.07 767.56,274.07 767.91,274.07 768.26,274.07 768.61,274.07 768.97,274.07 769.32,274.07 769.67,274.07 770.02,274.07 770.37,274.07 770.72,274.07 771.07,274.07 771.42,274.07 771.77,274.07 772.13,274.07 772.48,274.07 772.83,274.07"/>
<line x1="679" y1="60" x2="707" y2="60" stroke="#1f77b4" stroke-width="3"/>
<text x="715" y="64" font-family="sans-serif" font-size="13" fill="#1f77b4">normal force offset [m]</text>
</svg>